<?xml version="1.0" encoding="UTF-8" standalone="no"?><!DOCTYPE svg PUBLIC "-//W3C//DTD SVG 1.1//EN" "http://www.w3.org/Graphics/SVG/1.1/DTD/svg11.dtd"><svg width="100%" height="100%" viewBox="0 0 3930 1067" version="1.1" xmlns="http://www.w3.org/2000/svg" xmlns:xlink="http://www.w3.org/1999/xlink" xml:space="preserve" xmlns:serif="http://www.serif.com/" style="fill-rule:evenodd;clip-rule:evenodd;stroke-linejoin:round;stroke-miterlimit:2;"><path d="M1547.76,848.343l-354.123,0l0,-588.803l99.256,-0l-0,498.8l254.867,0l0,90.003Z" style="fill:#737373;fill-rule:nonzero;"/><path d="M1825.34,851.708c-67.853,-0 -123.789,-19.907 -167.809,-59.722c-44.02,-39.814 -66.03,-95.891 -66.03,-168.229c0,-70.096 21.73,-125.331 65.189,-165.706c43.459,-40.375 99.676,-60.563 168.65,-60.563c68.413,-0 124.35,20.328 167.809,60.983c43.459,40.656 65.189,95.751 65.189,165.286c-0,33.365 -4.837,63.016 -14.51,88.951c-9.673,25.935 -22.991,48.226 -39.954,66.871c-16.963,18.646 -36.801,33.716 -59.512,45.212c-35.047,17.944 -74.721,26.917 -119.022,26.917Zm0,-80.75c38.132,-0 70.376,-12.898 96.732,-38.693c26.356,-25.795 39.534,-61.404 39.534,-106.826c-0,-45.422 -13.178,-81.031 -39.534,-106.826c-26.356,-25.795 -58.6,-38.693 -96.732,-38.693c-37.01,0 -69.114,12.337 -96.311,37.011c-27.197,24.674 -40.796,60.843 -40.796,108.508c0,47.665 13.318,83.834 39.955,108.508c26.636,24.674 59.02,37.011 97.152,37.011Z" style="fill:#737373;fill-rule:nonzero;"/><path d="M2331.71,852.549c-47.104,-0 -86.498,-10.234 -118.181,-30.702c-34.207,-23.552 -58.811,-52.852 -73.811,-87.9c-15,-35.048 -22.501,-72.058 -22.501,-111.031c0,-48.226 9.463,-89.162 28.389,-122.808c18.926,-33.646 44.441,-59.301 76.544,-76.965c32.104,-17.664 68.063,-26.496 107.878,-26.496c72.338,-0 125.331,27.197 158.977,81.591l-0,-254.026l96.731,-0l0,624.131l-96.731,0l-0,-76.544c-33.086,53.833 -85.517,80.75 -157.295,80.75Zm20.187,-80.75c43.179,-0 76.825,-14.3 100.938,-42.899c24.113,-28.599 36.17,-62.806 36.17,-102.62c-0,-39.814 -12.057,-74.301 -36.17,-103.461c-24.113,-29.16 -57.759,-43.74 -100.938,-43.74c-43.739,0 -77.245,13.879 -100.517,41.637c-23.271,27.758 -35.748,62.946 -37.431,105.564c1.122,42.618 12.898,77.526 35.328,104.723c22.431,27.197 56.638,40.796 102.62,40.796Z" style="fill:#737373;fill-rule:nonzero;"/><path d="M2780.88,331.878c-14.3,0 -27.267,-5.116 -38.903,-15.35c-11.636,-10.234 -17.454,-24.744 -17.454,-43.53c-0,-19.907 5.748,-34.697 17.243,-44.37c11.496,-9.674 24.534,-14.51 39.114,-14.51c14.58,-0 27.617,4.836 39.113,14.51c11.496,9.673 17.244,24.463 17.244,44.37c-0,15.982 -5.047,29.791 -15.141,41.427c-10.094,11.636 -23.833,17.453 -41.216,17.453Zm47.945,516.465l-95.891,0l0,-447.49l95.891,-0l0,447.49Z" style="fill:#737373;fill-rule:nonzero;"/><path d="M3399.97,848.343l-96.732,0l0,-251.503c0,-30.842 -8.691,-56.637 -26.075,-77.386c-17.384,-20.748 -44.581,-31.122 -81.592,-31.122c-40.935,3.365 -71.777,16.122 -92.526,38.272c-20.748,22.15 -32.244,50.048 -34.487,83.694l0,238.045l-96.732,0l0,-447.49l96.732,-0l0,85.797c30.842,-59.441 85.797,-89.162 164.865,-89.162c56.637,-0 98.555,16.402 125.752,49.207c27.197,32.805 40.795,73.881 40.795,123.228l0,278.42Z" style="fill:#737373;fill-rule:nonzero;"/><path d="M3717.08,851.708c-50.469,-0 -92.666,-10.234 -126.593,-30.702c-33.926,-20.468 -59.441,-47.805 -76.544,-82.012c-17.103,-34.207 -25.655,-72.058 -25.655,-113.555c-0,-49.347 9.953,-90.704 29.861,-124.069c22.43,-35.609 50.679,-61.684 84.745,-78.227c34.067,-16.543 71.287,-25.094 111.663,-25.655c140.752,-0 211.128,76.264 211.128,228.792l-1.683,35.328l-338.141,0c10.655,39.534 28.389,68.063 53.203,85.587c24.813,17.524 53.342,26.286 85.586,26.286c48.226,-0 90.284,-17.384 126.172,-52.151l51.31,54.674c-46.543,50.469 -108.227,75.704 -185.052,75.704Zm122.808,-260.756c-3.926,-39.814 -17.244,-69.114 -39.955,-87.9c-22.711,-18.786 -50.889,-28.178 -84.535,-28.178c-39.254,-0 -69.816,10.794 -91.685,32.384c-21.87,21.589 -35.048,49.487 -39.534,83.694l255.709,-0Z" style="fill:#737373;fill-rule:nonzero;"/><g id="Letter"><path d="M533.318,742.506l-529.835,-0l147.616,-738.079l218.787,0l-110.711,554.614l310.52,-0l-36.377,183.465Z" style="fill:#f08;fill-rule:nonzero;"/><path d="M372.135,324.161l529.835,-0l-147.616,738.078l-218.788,0l110.712,-554.613l-310.52,0l36.377,-183.465Z" style="fill:#a40058;fill-rule:nonzero;"/></g></svg>