<?xml version="1.0" encoding="UTF-8" standalone="no"?>
<!DOCTYPE svg PUBLIC "-//W3C//DTD SVG 1.1//EN" "http://www.w3.org/Graphics/SVG/1.1/DTD/svg11.dtd">
<svg width="100%" height="100%" viewBox="0 0 943 254" version="1.1" xmlns="http://www.w3.org/2000/svg" xmlns:xlink="http://www.w3.org/1999/xlink" xml:space="preserve" xmlns:serif="http://www.serif.com/" style="fill-rule:evenodd;clip-rule:evenodd;stroke-linejoin:round;stroke-miterlimit:2;">
    <g id="Word" transform="matrix(1.04539,0,0,1.04539,7.2075,-23.6688)">
        <path d="M347.847,216.571L266.34,216.571L266.34,81.05L289.186,81.05L289.186,195.856L347.847,195.856L347.847,216.571ZM411.736,217.346C396.119,217.346 383.244,212.764 373.112,203.6C362.98,194.436 357.915,181.529 357.915,164.88C357.915,148.746 362.916,136.033 372.919,126.74C382.922,117.447 395.861,112.8 411.736,112.8C427.482,112.8 440.357,117.479 450.36,126.837C460.363,136.194 465.364,148.875 465.364,164.88C465.364,172.559 464.251,179.384 462.024,185.353C459.798,191.322 456.733,196.453 452.828,200.744C448.924,205.036 444.358,208.505 439.131,211.151C431.064,215.281 421.933,217.346 411.736,217.346ZM411.736,198.76C420.513,198.76 427.934,195.791 434,189.854C440.067,183.917 443.1,175.721 443.1,165.267C443.1,154.812 440.067,146.616 434,140.679C427.934,134.742 420.513,131.773 411.736,131.773C403.218,131.773 395.828,134.613 389.569,140.292C383.309,145.971 380.179,154.296 380.179,165.267C380.179,176.238 383.244,184.563 389.375,190.242C395.506,195.921 402.959,198.76 411.736,198.76ZM528.285,217.54C517.443,217.54 508.376,215.184 501.084,210.473C493.211,205.052 487.548,198.308 484.095,190.242C480.643,182.175 478.916,173.656 478.916,164.686C478.916,153.586 481.094,144.164 485.45,136.42C489.806,128.676 495.679,122.771 503.068,118.705C510.457,114.64 518.734,112.607 527.898,112.607C544.548,112.607 556.745,118.867 564.489,131.386L564.489,72.918L586.753,72.918L586.753,216.571L564.489,216.571L564.489,198.954C556.874,211.344 544.806,217.54 528.285,217.54ZM532.931,198.954C542.87,198.954 550.614,195.662 556.164,189.08C561.714,182.497 564.489,174.624 564.489,165.46C564.489,156.296 561.714,148.359 556.164,141.647C550.614,134.936 542.87,131.58 532.931,131.58C522.864,131.58 515.152,134.774 509.796,141.163C504.44,147.552 501.568,155.651 501.181,165.46C501.439,175.27 504.149,183.304 509.312,189.564C514.475,195.824 522.348,198.954 532.931,198.954ZM631.669,97.699C628.378,97.699 625.393,96.522 622.715,94.166C620.037,91.811 618.698,88.471 618.698,84.147C618.698,79.565 620.02,76.161 622.666,73.935C625.312,71.708 628.313,70.595 631.669,70.595C635.025,70.595 638.026,71.708 640.671,73.935C643.317,76.161 644.64,79.565 644.64,84.147C644.64,87.826 643.479,91.004 641.155,93.682C638.832,96.36 635.67,97.699 631.669,97.699ZM642.704,216.571L620.634,216.571L620.634,113.575L642.704,113.575L642.704,216.571ZM774.161,216.571L751.896,216.571L751.896,158.684C751.896,151.585 749.896,145.648 745.895,140.873C741.893,136.097 735.634,133.71 727.115,133.71C717.693,134.484 710.594,137.42 705.819,142.518C701.043,147.617 698.397,154.038 697.881,161.782L697.881,216.571L675.617,216.571L675.617,113.575L697.881,113.575L697.881,133.322C704.98,119.641 717.629,112.8 735.827,112.8C748.863,112.8 758.511,116.576 764.771,124.126C771.031,131.677 774.161,141.131 774.161,152.489L774.161,216.571ZM847.149,217.346C835.533,217.346 825.82,214.99 818.012,210.279C810.203,205.568 804.33,199.276 800.394,191.403C796.457,183.53 794.489,174.818 794.489,165.267C794.489,153.909 796.78,144.39 801.362,136.71C806.524,128.514 813.026,122.513 820.867,118.705C828.708,114.898 837.275,112.929 846.568,112.8C878.964,112.8 895.162,130.354 895.162,165.46L894.775,173.592L816.947,173.592C819.399,182.691 823.481,189.257 829.192,193.291C834.903,197.324 841.47,199.341 848.891,199.341C859.991,199.341 869.671,195.34 877.932,187.337L889.741,199.922C879.029,211.538 864.831,217.346 847.149,217.346ZM875.415,157.329C874.511,148.165 871.446,141.421 866.219,137.098C860.991,132.774 854.506,130.612 846.762,130.612C837.727,130.612 830.693,133.096 825.659,138.066C820.625,143.035 817.592,149.456 816.56,157.329L875.415,157.329ZM114.745,192.089L-6.895,192.089L26.995,22.641L77.224,22.641L51.807,149.969L123.096,149.969L114.745,192.089ZM77.74,96.045L199.38,96.045L165.49,265.493L115.261,265.493L140.678,138.165L69.389,138.165L77.74,96.045Z" style="fill:white;"/>
    </g>
</svg>
